#!OML:ASF C:\ViconDB\ViconDB\414\Spring2016\041811\Spring2016.ASF
:FULLY-SPECIFIED
:DEGREES
233
root 7.29472 16.049 -29.98 -168.393 -5.51613 -179.21
lowerback 22.8616 0.220329 -2.72396
upperback 2.65356 -0.891875 0.257674
thorax -9.82223 -0.528329 2.15817
lowerneck -10.6221 -7.42483 -17.5569
upperneck -0.944166 -9.79399 25.6291
head 3.87744 -4.63281 10.4123
rclavicle 8.15017e-015 1.55052e-014
rhumerus -26.6218 8.4454 -74.5573
rradius 87.3893
rwrist 1.3735
rhand -38.1783 -17.3815
rfingers 7.12502
rthumb -11.2113 -47.0619
lclavicle 8.15017e-015 1.55052e-014
lhumerus -24.7429 -15.0859 67.9445
lradius 83.4941
lwrist 0.989154
lhand -33.754 13.9924
lfingers 7.12502
lthumb -6.94206 43.8586
rfemur -35.8215 -19.9388 18.8166
rtibia 67.48
rfoot 2.56683 -12.7074
rtoes -0.416763
lfemur -41.9425 9.79546 -13.8468
ltibia 70.8475
lfoot -33.5156 -4.26151
ltoes -20.9916
234
root 7.27671 16.2618 -30.2939 -168.759 -5.50828 -179.083
lowerback 21.3686 0.151799 -2.6969
upperback 2.3116 -0.841562 0.302084
thorax -9.39758 -0.473308 2.14758
lowerneck -10.3221 -7.44519 -17.6767
upperneck 0.428165 -9.98744 25.3623
head 4.24552 -4.66955 10.3293
rclavicle -7.15625e-015 -2.54444e-014
rhumerus -24.3527 9.67807 -72.2787
rradius 91.2446
rwrist -0.0610005
rhand -38.1239 -17.2596
rfingers 7.12502
rthumb -11.1588 -46.9429
lclavicle -7.15625e-015 -2.54444e-014
lhumerus -22.3445 -15.6591 65.0774
lradius 87.1554
lwrist 1.87403
lhand -33.3952 13.7746
lfingers 7.12502
lthumb -6.59573 43.6519
rfemur -32.4409 -19.5372 18.4947
rtibia 64.5002
rfoot 1.82271 -11.7814
rtoes -0.341658
lfemur -38.5069 9.14035 -13.4758
ltibia 67.804
lfoot -32.8389 -3.64527
ltoes -21.4556
235
root 7.25028 16.484 -30.6229 -169.1 -5.4016 -178.89
lowerback 19.505 0.102595 -2.66626
upperback 2.079 -0.756541 0.453456
thorax -8.64025 -0.411561 2.23665
lowerneck -10.0847 -7.48105 -17.8165
upperneck 1.85823 -10.1692 24.8646
head 4.62371 -4.70227 10.1707
rclavicle -1.53064e-014 -7.95139e-016
rhumerus -21.6644 10.6501 -69.6468
rradius 94.656
rwrist -1.27892
rhand -37.7506 -17.4263
rfingers 7.12502
rthumb -10.7987 -47.1287
lclavicle -1.53064e-014 -7.95139e-016
lhumerus -19.7399 -15.75 62.2566
lradius 90.2223
lwrist 2.67728
lhand -33.645 13.4801
lfingers 7.12502
lthumb -6.83689 43.3497
rfemur -29.1486 -19.0534 18.22
rtibia 61.532
rfoot 0.679427 -10.6485
rtoes 0.0612695
lfemur -35.0462 8.60049 -13.1219
ltibia 64.6349
lfoot -31.907 -2.90972
ltoes -22.1309
236
root 7.22166 16.7236 -30.9668 -169.486 -5.1965 -178.556
lowerback 17.784 0.0531494 -2.26441
upperback 1.69615 -0.616554 0.455474
thorax -8.12347 -0.329815 1.94615
lowerneck -9.71594 -7.43312 -17.8237
upperneck 3.48664 -10.3521 24.474
head 5.04031 -4.75424 10.0378
rclavicle -3.57812e-015 1.35174e-014
rhumerus -19.2973 11.4497 -67.28
rradius 97.7233
rwrist -2.67101
rhand -37.4869 -17.6009
rfingers 7.12502
rthumb -10.5443 -47.3164
lclavicle -3.57812e-015 1.35174e-014
lhumerus -17.215 -15.6884 59.2321
lradius 92.7915
lwrist 2.77422
lhand -33.7259 13.3196
lfingers 7.12502
lthumb -6.91502 43.1867
rfemur -25.8406 -18.6227 18.1256
rtibia 58.5682
rfoot -0.707801 -9.25575
rtoes -0.0593452
lfemur -31.408 7.98831 -12.6471
ltibia 61.2039
lfoot -30.5689 -1.95449
ltoes -23.0684
237
root 7.19923 16.9762 -31.3085 -170.104 -5.28448 -178.617
lowerback 16.4765 -0.115132 -2.58042
upperback 1.35134 -0.79847 0.588904
thorax -7.75893 -0.382379 2.29155
lowerneck -9.52246 -7.216 -17.6213
upperneck 5.33546 -10.2849 23.6737
head 5.45881 -4.68401 9.75435
rclavicle -1.32192e-014 1.59028e-015
rhumerus -16.6946 12.6143 -64.844
rradius 100.504
rwrist -4.53973
rhand -37.5629 -18.4836
rfingers 7.12502
rthumb -10.6177 -48.1953
lclavicle -1.32192e-014 1.59028e-015
lhumerus -14.9331 -14.7889 56.4075
lradius 94.8735
lwrist 2.54684
lhand -33.6474 13.6314
lfingers 7.12502
lthumb -6.83916 43.501
rfemur -22.4078 -18.5149 17.5654
rtibia 55.7923
rfoot -2.49807 -7.69904
rtoes -0.439165
lfemur -27.5024 6.9137 -12.5418
ltibia 57.5806
lfoot -28.6674 -1.21764
ltoes -23.5846
238
root 7.16933 17.2529 -31.6641 -170.627 -5.23005 -178.744
lowerback 14.9311 -0.219931 -2.79186
upperback 1.05824 -0.882435 0.587881
thorax -7.2071 -0.401517 2.40116
lowerneck -9.49624 -7.08914 -17.5624
upperneck 7.22962 -10.4044 23.2344
head 6.00415 -4.71404 9.60901
rclavicle 4.28381e-014 -7.35503e-015
rhumerus -14.1314 13.2744 -62.4615
rradius 102.767
rwrist -5.81413
rhand -37.1668 -18.806
rfingers 7.12502
rthumb -10.2356 -48.5369
lclavicle 4.28381e-014 -7.35503e-015
lhumerus -12.5065 -13.9717 53.596
lradius 96.3989
lwrist 2.66956
lhand -33.8469 13.4892
lfingers 7.12502
lthumb -7.03182 43.3524
rfemur -19.2555 -18.3397 16.9114
rtibia 53.1781
rfoot -4.72888 -5.74145
rtoes -0.557587
lfemur -23.5787 5.67141 -12.5675
ltibia 53.7943
lfoot -26.2653 -0.529032
ltoes -24.3393
239
root 7.13505 17.5458 -32.0325 -171.051 -5.0913 -178.842
lowerback 13.1207 -0.280402 -2.93523
upperback 0.839908 -0.888737 0.607325
thorax -6.42661 -0.394217 2.47096
lowerneck -9.3892 -6.98476 -17.5337
upperneck 8.90841 -10.5229 22.7329
head 6.47539 -4.76797 9.44876
rclavicle -2.48481e-015 2.34566e-014
rhumerus -11.6484 13.425 -60.0969
rradius 104.986
rwrist -7.7926
rhand -36.721 -18.7011
rfingers 7.12502
rthumb -9.80545 -48.4528
lclavicle -2.48481e-015 2.34566e-014
lhumerus -10.1604 -12.8091 51.1457
lradius 97.7547
lwrist 2.72666
lhand -33.8175 14.0861
lfingers 7.12502
lthumb -7.00337 43.9502
rfemur -16.5187 -18.4119 16.2769
rtibia 50.8176
rfoot -7.35415 -3.57808
rtoes -1.57186
lfemur -19.8112 4.48428 -12.6749
ltibia 49.9519
lfoot -23.2617 0.518014
ltoes -25.74
240
root 7.09959 17.8527 -32.4103 -171.421 -4.88385 -178.852
lowerback 11.3122 -0.30028 -2.98511
upperback 0.609092 -0.828125 0.659166
thorax -5.66076 -0.358551 2.51225
lowerneck -9.25292 -6.8603 -17.5234
upperneck 10.3758 -10.6173 22.3515
head 6.88778 -4.82719 9.33835
rclavicle 5.46658e-016 1.74931e-014
rhumerus -9.42607 13.588 -57.7975
rradius 106.819
rwrist -7.71578
rhand -36.3513 -19.7682
rfingers 7.12502
rthumb -9.4488 -49.5364
lclavicle 5.46658e-016 1.74931e-014
lhumerus -7.89387 -11.6858 48.8698
lradius 98.7282
lwrist 3.27513
lhand -34.0107 14.5036
lfingers 7.12502
lthumb -7.18985 44.3615
rfemur -14.1152 -18.6165 15.7316
rtibia 48.6942
rfoot -10.4206 -1.00932
rtoes -3.89446
lfemur -16.1882 3.21599 -12.7442
ltibia 46.1643
lfoot -19.5533 1.67563
ltoes -26.2903
241
root 7.06093 18.1794 -32.789 -171.827 -4.51678 -179.019
lowerback 9.71472 -0.23447 -3.12603
upperback 0.402404 -0.683562 0.622063
thorax -4.99018 -0.282866 2.50738
lowerneck -9.04875 -6.7935 -17.6213
upperneck 11.5233 -10.7748 22.1544
head 7.2274 -4.93121 9.30238
rclavicle -1.63997e-015 1.8487e-014
rhumerus -7.4017 13.8655 -55.499
rradius 108.603
rwrist -7.32226
rhand -36.9697 -22.3868
rfingers 7.12502
rthumb -10.0454 -52.1271
lclavicle -1.63997e-015 1.8487e-014
lhumerus -5.69643 -10.426 46.7188
lradius 99.4651
lwrist 4.36011
lhand -34.1667 14.5574
lfingers 7.12502
lthumb -7.3405 44.4101
rfemur -12.0612 -19.0387 14.9514
rtibia 46.7922
rfoot -14.5059 2.21657
rtoes -6.4874
lfemur -12.7132 1.96856 -13.0871
ltibia 42.4934
lfoot -15.3561 2.98353
ltoes -27.1313
